<?xml version="1.0" encoding="utf-8"?>
<!-- Generator: Adobe Illustrator 22.1.0, SVG Export Plug-In . SVG Version: 6.00 Build 0)  -->
<svg version="1.1" id="Ebene_1" xmlns="http://www.w3.org/2000/svg" xmlns:xlink="http://www.w3.org/1999/xlink" x="0px" y="0px"
	 width="41px" height="38px" viewBox="0 0 41 38" style="enable-background:new 0 0 41 38;" xml:space="preserve">
<style type="text/css">
	.st0{opacity:0.1;}
</style>
<path class="st0" d="M39.9,22.8c-1.1-1-3.4-1.6-6.9-1.6s-7.3,0.6-10.8,1.6c-3.5,1-6.5,2.4-8.4,3.9c-2.6,2.2-1.7,4-1.3,6.3l0.6,4.8
	l11.8-4.7c5.9-2.3,11.3-4.2,14-6.4C40.7,25.2,40.9,23.8,39.9,22.8z M23.7,28.9c-2.8,0-3.8-1-2.4-2.2c1.5-1.2,4.9-2.2,7.7-2.2
	s3.8,1,2.4,2.2C29.9,27.9,26.5,28.9,23.7,28.9z"/>
<path d="M21.8,3.8c-2.3-2.3-5.4-3.7-8.8-3.7S6.4,1.6,4.2,3.8c-2.3,2.3-3.7,5.4-3.7,8.8c0,4.9,3.1,9,6.3,14.3l6.3,10.8l6.2-10.6
	c3.1-5.3,6.3-9.6,6.3-14.5C25.5,9.2,24.1,6.1,21.8,3.8z M13,17.7c-2.8,0-5-2.2-5-5s2.2-5,5-5s5,2.2,5,5S15.8,17.7,13,17.7z"/>
</svg>
